<svg xmlns="http://www.w3.org/2000/svg" viewBox="0 0 706.5 365.89"><defs><style>.cls-1{fill:#080401;}.cls-2{fill:#eed314;}</style></defs><g id="Layer_2" data-name="Layer 2"><g id="Layer_1-2" data-name="Layer 1"><path class="cls-1" d="M132,324.1H112.85l-1.94,11h16.33l-1,5.36H109.94l-2.62,15h-6.4l6.51-36.71H133Z"/><path class="cls-1" d="M127,348.59q1.48-8.28,19.92-9.48a6,6,0,0,1,.69-.06l.06-.22a7.33,7.33,0,0,0,.11-1.2q0-3.66-4.74-3.66a9.9,9.9,0,0,0-2.74.35,5.86,5.86,0,0,0-1.83.8,5.2,5.2,0,0,0-1,.94,1.89,1.89,0,0,0-.46.83l-.11.34h-6.57a5,5,0,0,1,.26-.89,11.07,11.07,0,0,1,1.11-1.91A10.89,10.89,0,0,1,134,332a12.34,12.34,0,0,1,4-1.94,19.06,19.06,0,0,1,6-.86q5.82,0,8,2.25a7.32,7.32,0,0,1,2.17,5.23,13.7,13.7,0,0,1-.17,2l-1.49,8.62-.22,1.09a4.59,4.59,0,0,0-.06.68,1.13,1.13,0,0,0,.2.69c.13.19.48.28,1,.28h1.26l-1,5.37h-1.31a11.54,11.54,0,0,1-4.77-.74,3.23,3.23,0,0,1-1.8-2.57Q141.9,356,135.4,356q-4.78,0-6.65-1.86A5.75,5.75,0,0,1,126.9,350,7.91,7.91,0,0,1,127,348.59Zm7.36,1.88a5,5,0,0,0,2.8.8,11.91,11.91,0,0,0,6-1.68,6.22,6.22,0,0,0,3.39-4.37l.35-1.94c-1.22.08-2.21.15-3,.23s-1.84.24-3.23.48a20.08,20.08,0,0,0-3.37.86,8.48,8.48,0,0,0-2.42,1.43,3.65,3.65,0,0,0-1.37,2.19,1.88,1.88,0,0,0-.06.46A1.73,1.73,0,0,0,134.37,350.47Z"/><path class="cls-1" d="M156.24,347.9l.06-1h6.56a2.84,2.84,0,0,0-.11.52,3.69,3.69,0,0,0,.2,1,3.6,3.6,0,0,0,.65,1.26,4.2,4.2,0,0,0,1.63,1.06,7.79,7.79,0,0,0,2.94.48h.17q5.59,0,6-3.54v-.23c0-.76-.53-1.38-1.58-1.85a17.08,17.08,0,0,0-4-1.17c-1.62-.31-3.23-.67-4.83-1.09a8.2,8.2,0,0,1-3.79-2,4.59,4.59,0,0,1-1.4-3.34,6.67,6.67,0,0,1,.06-.86c.23-2,1.48-3.8,3.77-5.48a14.89,14.89,0,0,1,9-2.51,18.92,18.92,0,0,1,4.23.43,8.33,8.33,0,0,1,4.79,2.68,4.77,4.77,0,0,1,1,1.66,9.63,9.63,0,0,1,.4,1.42,5.33,5.33,0,0,1,.12,1v.69h-6.57v-.35a2.68,2.68,0,0,0-.23-.79,2.93,2.93,0,0,0-.65-1,3.69,3.69,0,0,0-1.43-.77,7.52,7.52,0,0,0-2.43-.35,8.05,8.05,0,0,0-4.08.92,2.9,2.9,0,0,0-1.68,2.22v.17q0,1.09,1.62,1.8a18.53,18.53,0,0,0,4.09,1.17q2.44.46,4.91,1.12a8.52,8.52,0,0,1,3.91,2.11,4.71,4.71,0,0,1,1.45,3.45,4.91,4.91,0,0,1-.06.74,8.37,8.37,0,0,1-4,6.17q-3.51,2.34-10,2.34a15.51,15.51,0,0,1-5.74-.94,7.08,7.08,0,0,1-3.31-2.29,10.39,10.39,0,0,1-1.37-2.56,6.47,6.47,0,0,1-.43-2.09Z"/><path class="cls-1" d="M184.27,335.12l1-5.37h3.42l1.32-7.48h6.33L195,329.75h6.22l-1,5.37H194l-2.34,13.24a3.7,3.7,0,0,0-.06.63,1.3,1.3,0,0,0,.23.77c.15.21.55.31,1.2.31h4.57l-1,5.37h-4.56q-4.51,0-5.74-1.23a4.59,4.59,0,0,1-1.23-3.4,15.31,15.31,0,0,1,.23-2.45l2.34-13.24Z"/><path class="cls-1" d="M214,355.44l6.51-36.71h7l8.91,30.43L256,318.73h7l-6.51,36.71h-6.39l4.45-25.12-16.1,25.12H232l-7.19-25.12-4.46,25.12Z"/><path class="cls-1" d="M261.62,342.59a15.79,15.79,0,0,1,5.54-9.62,16.75,16.75,0,0,1,11.18-3.79q6.63,0,9.45,3.31a11,11,0,0,1,2.83,7.31,14.87,14.87,0,0,1-.29,2.79,15.56,15.56,0,0,1-5.48,9.65A16.85,16.85,0,0,1,273.66,356q-6.68,0-9.47-3.34a11.16,11.16,0,0,1-2.8-7.34A17.77,17.77,0,0,1,261.62,342.59Zm7.48,6.06q1.71,2.39,5.42,2.39a8.7,8.7,0,0,0,6.19-2.39,10.83,10.83,0,0,0,3.23-6.06,12.23,12.23,0,0,0,.17-1.94,7.48,7.48,0,0,0-1.46-4.45q-1.45-2.06-5.16-2.05a8.72,8.72,0,0,0-6.25,2.36,8.91,8.91,0,0,0-2.91,4.77,22,22,0,0,0-.43,3.31A6.75,6.75,0,0,0,269.1,348.65Z"/><path class="cls-1" d="M292.39,335.12l1-5.37h3.42l1.32-7.48h6.33l-1.31,7.48h6.22l-1,5.37h-6.22l-2.34,13.24a3.7,3.7,0,0,0-.06.63,1.3,1.3,0,0,0,.23.77c.15.21.55.31,1.2.31h4.57l-1,5.37h-4.57q-4.51,0-5.74-1.23a4.59,4.59,0,0,1-1.23-3.4,15.31,15.31,0,0,1,.23-2.45l2.34-13.24Z"/><path class="cls-1" d="M308.89,355.44l4.56-25.69h6.28l-4.56,25.69Zm5-33.23a4.69,4.69,0,0,1,1.66-2.88,4.54,4.54,0,0,1,3-1.17,3.22,3.22,0,0,1,2.6,1,3.17,3.17,0,0,1,.77,3,4.64,4.64,0,0,1-1.68,2.83,4.75,4.75,0,0,1-3.11,1.17,3,3,0,0,1-2.46-1,3.38,3.38,0,0,1-.85-2.22A5.05,5.05,0,0,1,313.85,322.21Z"/><path class="cls-1" d="M321.05,342.59a15.82,15.82,0,0,1,5.53-9.62,16.8,16.8,0,0,1,11.19-3.79q6.63,0,9.45,3.31a11,11,0,0,1,2.83,7.31,14.87,14.87,0,0,1-.29,2.79,15.61,15.61,0,0,1-5.48,9.65A16.89,16.89,0,0,1,333.09,356q-6.68,0-9.48-3.34a11.2,11.2,0,0,1-2.79-7.34A16.61,16.61,0,0,1,321.05,342.59Zm7.47,6.06c1.15,1.59,3,2.39,5.43,2.39a8.71,8.71,0,0,0,6.19-2.39,10.89,10.89,0,0,0,3.23-6.06,12.23,12.23,0,0,0,.17-1.94,7.55,7.55,0,0,0-1.46-4.45q-1.45-2.06-5.16-2.05a8.74,8.74,0,0,0-6.26,2.36,9,9,0,0,0-2.91,4.77,23.47,23.47,0,0,0-.43,3.31A6.75,6.75,0,0,0,328.52,348.65Z"/><path class="cls-1" d="M354.84,329.75h6.05l-.68,3.94a10.26,10.26,0,0,1,8.56-4.51h.46q5.92,0,7.67,2.6a10.56,10.56,0,0,1,1.74,6,23.1,23.1,0,0,1-.34,3.82l-2.45,13.82h-6.28l2.4-13.82a14,14,0,0,0,.28-2.62,6,6,0,0,0-.86-3.23c-.57-.93-1.84-1.42-3.82-1.45h-.17a7.69,7.69,0,0,0-5.71,2.19c-1.45,1.47-2.44,3.72-3,6.77l-2.17,12.16h-6.28Z"/><path class="cls-1" d="M400.74,350.07h18l-1,5.37H393.37l6.51-36.71h6.39Z"/><path class="cls-1" d="M420.37,342.59a15.83,15.83,0,0,1,5.54-9.62,16.8,16.8,0,0,1,11.19-3.79q6.61,0,9.45,3.31a11,11,0,0,1,2.82,7.31,14.81,14.81,0,0,1-.28,2.79,15.61,15.61,0,0,1-5.48,9.65A16.89,16.89,0,0,1,432.42,356q-6.68,0-9.48-3.34a11.2,11.2,0,0,1-2.79-7.34A17.71,17.71,0,0,1,420.37,342.59Zm7.48,6.06q1.71,2.39,5.43,2.39a8.71,8.71,0,0,0,6.19-2.39,10.89,10.89,0,0,0,3.23-6.06,12.23,12.23,0,0,0,.17-1.94,7.55,7.55,0,0,0-1.46-4.45q-1.46-2.06-5.17-2.05a8.74,8.74,0,0,0-6.25,2.36,9,9,0,0,0-2.91,4.77,23.47,23.47,0,0,0-.43,3.31A6.75,6.75,0,0,0,427.85,348.65Z"/><path class="cls-1" d="M449.66,365.89l1-5.31h17.75a2,2,0,0,0,1.4-.4,2.4,2.4,0,0,0,.6-1.37l1.14-6.74a11.52,11.52,0,0,1-8.1,3.88q-.63.06-1.26.06-5.82,0-8.42-3.08a10.86,10.86,0,0,1-2.6-7.2,17.19,17.19,0,0,1,.29-3,16.3,16.3,0,0,1,5.34-9.76,15.09,15.09,0,0,1,10.3-3.71h.74a8.1,8.1,0,0,1,7.25,4.11l.63-3.6h6.11l-5.14,29.06c-.49,2.81-1.41,4.7-2.74,5.65s-3.5,1.43-6.51,1.43Zm9.42-17.19a6.18,6.18,0,0,0,5.19,2.29,8.5,8.5,0,0,0,5.94-2.26,10.73,10.73,0,0,0,3.2-6v-.29a11.21,11.21,0,0,0,.23-2.17,6.69,6.69,0,0,0-1.43-4.22q-1.43-1.83-5-1.83a8.87,8.87,0,0,0-6.11,2.29,10.41,10.41,0,0,0-3.25,6.22,10.93,10.93,0,0,0-.17,1.83A6.47,6.47,0,0,0,459.08,348.7Z"/><path class="cls-1" d="M482.14,355.44l4.57-25.69H493l-4.57,25.69Zm5-33.23a4.72,4.72,0,0,1,1.65-2.88,4.56,4.56,0,0,1,3-1.17,3.23,3.23,0,0,1,2.6,1,3.27,3.27,0,0,1,.88,2.17,3.74,3.74,0,0,1-.11.85,4.6,4.6,0,0,1-1.69,2.83,4.73,4.73,0,0,1-3.11,1.17,3,3,0,0,1-2.45-1,3.39,3.39,0,0,1-.86-2.22A5.14,5.14,0,0,1,487.11,322.21Z"/><path class="cls-1" d="M493.62,347.9l.05-1h6.57a3.76,3.76,0,0,0-.12.52,4.11,4.11,0,0,0,.2,1,3.63,3.63,0,0,0,.66,1.26,4.12,4.12,0,0,0,1.63,1.06,7.79,7.79,0,0,0,2.94.48h.17c3.73,0,5.72-1.18,6-3.54v-.23c0-.76-.52-1.38-1.57-1.85a17.38,17.38,0,0,0-4-1.17c-1.62-.31-3.23-.67-4.83-1.09a8.15,8.15,0,0,1-3.79-2,4.55,4.55,0,0,1-1.4-3.34c0-.27,0-.55.05-.86.23-2,1.49-3.8,3.77-5.48a14.94,14.94,0,0,1,9-2.51,18.92,18.92,0,0,1,4.23.43,8.42,8.42,0,0,1,4.79,2.68,4.77,4.77,0,0,1,1,1.66,11.05,11.05,0,0,1,.4,1.42,6.15,6.15,0,0,1,.11,1v.69H513v-.35a2.68,2.68,0,0,0-.23-.79,2.82,2.82,0,0,0-.66-1,3.56,3.56,0,0,0-1.42-.77,7.52,7.52,0,0,0-2.43-.35,8,8,0,0,0-4.08.92,2.94,2.94,0,0,0-1.69,2.22v.17c0,.73.55,1.33,1.63,1.8a18.59,18.59,0,0,0,4.08,1.17c1.64.31,3.27.68,4.91,1.12a8.42,8.42,0,0,1,3.91,2.11,4.72,4.72,0,0,1,1.46,3.45,4.91,4.91,0,0,1-.06.74,8.39,8.39,0,0,1-4,6.17q-3.51,2.34-10,2.34a15.54,15.54,0,0,1-5.74-.94,7.13,7.13,0,0,1-3.31-2.29,11.11,11.11,0,0,1-1.37-2.56,6.69,6.69,0,0,1-.42-2.09Z"/><path class="cls-1" d="M521.64,335.12l1-5.37H526l1.31-7.48h6.34l-1.31,7.48h6.22l-1,5.37h-6.22l-2.34,13.24a3.7,3.7,0,0,0-.06.63,1.23,1.23,0,0,0,.23.77c.15.21.55.31,1.2.31H535l-1,5.37h-4.56q-4.51,0-5.74-1.23a4.59,4.59,0,0,1-1.23-3.4,15.31,15.31,0,0,1,.23-2.45l2.34-13.24Z"/><path class="cls-1" d="M538.14,355.44l4.57-25.69H549l-4.57,25.69Zm5-33.23a4.72,4.72,0,0,1,1.65-2.88,4.56,4.56,0,0,1,3-1.17,3.23,3.23,0,0,1,2.6,1,3.27,3.27,0,0,1,.88,2.17,3.74,3.74,0,0,1-.11.85,4.6,4.6,0,0,1-1.69,2.83,4.73,4.73,0,0,1-3.11,1.17,3,3,0,0,1-2.45-1,3.39,3.39,0,0,1-.86-2.22A5.14,5.14,0,0,1,543.11,322.21Z"/><path class="cls-1" d="M550.36,342.42a15.59,15.59,0,0,1,5.36-9.59,18.08,18.08,0,0,1,16.56-2.74,7.67,7.67,0,0,1,3.4,2.2,11.66,11.66,0,0,1,1.54,2.57,5.88,5.88,0,0,1,.54,2.2V338h-6.62a2,2,0,0,0-.06-.43,5.45,5.45,0,0,0-.37-.91,4.22,4.22,0,0,0-.83-1.17,4.32,4.32,0,0,0-1.62-.91,7.64,7.64,0,0,0-2.6-.4,8,8,0,0,0-5.85,2.25,10.82,10.82,0,0,0-3,6,13.6,13.6,0,0,0-.17,2.12,8.31,8.31,0,0,0,1.28,4.45q1.29,2.06,4.77,2.05a7,7,0,0,0,4.11-1.22,6.75,6.75,0,0,0,2.34-2.43l.57-1.2h6.57c-.08.27-.2.62-.38,1.06a16,16,0,0,1-1.34,2.34,14.63,14.63,0,0,1-2.54,3,13.45,13.45,0,0,1-4.16,2.37,16.38,16.38,0,0,1-6,1.06q-6.55,0-9.16-3.14a11,11,0,0,1-2.6-7.19A19.91,19.91,0,0,1,550.36,342.42Z"/><path class="cls-1" d="M577.7,347.9l.06-1h6.56c0,.12-.07.29-.11.52a4.11,4.11,0,0,0,.2,1,3.47,3.47,0,0,0,.66,1.26,4.07,4.07,0,0,0,1.62,1.06,7.79,7.79,0,0,0,2.94.48h.17q5.6,0,6-3.54v-.23c0-.76-.53-1.38-1.57-1.85a17.32,17.32,0,0,0-4-1.17c-1.62-.31-3.22-.67-4.82-1.09a8.24,8.24,0,0,1-3.8-2,4.59,4.59,0,0,1-1.4-3.34,6.67,6.67,0,0,1,.06-.86c.23-2,1.49-3.8,3.77-5.48a14.92,14.92,0,0,1,9-2.51,18.76,18.76,0,0,1,4.22.43,8.85,8.85,0,0,1,3,1.14,9.43,9.43,0,0,1,1.83,1.54,4.92,4.92,0,0,1,1,1.66,11.05,11.05,0,0,1,.4,1.42,6.15,6.15,0,0,1,.11,1v.69h-6.57v-.35a2.57,2.57,0,0,0-.22-.79,3,3,0,0,0-.66-1,3.61,3.61,0,0,0-1.43-.77,7.41,7.41,0,0,0-2.42-.35,8.07,8.07,0,0,0-4.09.92,3,3,0,0,0-1.68,2.22v.17c0,.73.54,1.33,1.63,1.8a18.27,18.27,0,0,0,4.08,1.17q2.44.46,4.91,1.12a8.47,8.47,0,0,1,3.91,2.11,4.71,4.71,0,0,1,1.45,3.45,6.57,6.57,0,0,1,0,.74,8.42,8.42,0,0,1-4,6.17Q595,356,588.55,356a15.51,15.51,0,0,1-5.74-.94,7.13,7.13,0,0,1-3.31-2.29,10.74,10.74,0,0,1-1.37-2.56,6.47,6.47,0,0,1-.43-2.09Z"/><path class="cls-1" d="M260.4,267.83l40-36.66c.72,1.36,1.32,2.37,1.8,3.44,2.91,6.51,5.66,13.09,8.7,19.54,5.32,11.29-.31,26.4-11,32.18-11.75,6.36-26.48,3.21-33.93-7.71C263.72,275.35,262.28,271.55,260.4,267.83Z"/><path class="cls-1" d="M529.21,188a115.22,115.22,0,0,1,12.47-51.34,84,84,0,0,1,84.51-45.49c25.92,2.92,46,15.21,60.7,36.55,10.79,15.65,15.9,33.35,17.57,52,1.87,20.88-1,41.2-10.2,60.17-12.71,26.29-33.11,43.5-62.25,48.54-26.07,4.51-49.72-1.82-70-19.09-14.44-12.27-23.51-28-28.32-46.22A132.44,132.44,0,0,1,529.21,188Zm128.13.8c-.11-1.77-.18-5.19-.53-8.57-.92-9.06-3-17.81-7.27-25.94-13.08-24.92-45.9-26.83-61.57-5.12A56.35,56.35,0,0,0,578.51,171a97,97,0,0,0-.59,34.94c1.91,12.13,6.54,23.05,16,31.45,7.93,7.07,17.33,9.48,27.62,8.32,13.35-1.51,22.46-9.19,28.52-20.83C655.66,214.06,657.13,202.36,657.34,188.76Z"/><path class="cls-1" d="M83.09,91.45c19,0,37.94-.07,56.91,0,11.7.06,20.75,7.42,23.41,18.7,3.39,14.42-6,27.82-20.77,29.37a67.21,67.21,0,0,1-7.1.29q-34.23,0-68.47,0H65.29c-6.85.08-8.25,1.56-8.37,8.43-.11,5.91.15,11.91-.7,17.73-2.21,15-14.76,24.31-30.73,23.36C11.72,188.59.48,177,.19,162.58c-.29-14.82-.22-29.65,0-44.47.15-8.7,3.56-16.12,10.64-21.56a25.59,25.59,0,0,1,16.2-5.13c18.68,0,37.35,0,56,0Z"/><path class="cls-1" d="M140.71,188.2a23.66,23.66,0,0,1-23,24.05c-6.65.31-13.32.49-20,1-12.56,1.05-22.54,6.68-29.52,17.33-3.91,6-5.65,12.66-6.18,19.69-.32,4.28-.26,8.61-.83,12.85-2,15-13.6,25.67-28.94,26.33-16.21.7-27.48-8.77-31-22.08s.23-25,10.7-34c18.66-16,37.56-31.72,56.46-47.44,5.56-4.63,11.25-9.17,17.23-13.25a52.73,52.73,0,0,1,30.6-9.07C132.94,163.68,140.66,177.05,140.71,188.2Z"/><path class="cls-1" d="M197.75,196.24c-20.13,0-39.25,2.2-55.79,15.42.47-1.37.85-2.78,1.44-4.1q8-17.84,16-35.64,12.85-28.32,25.75-56.62c.85-1.88,1.6-3.82,2.39-5.73,6-14.61,20.67-21.9,35-17.23,8.4,2.73,13.87,8.74,17.45,16.66q8.79,19.43,17.68,38.8c2.15,4.71,4.34,9.4,6.69,14.5l-34.91,33c-5.68-12.17-10.25-24.43-15.83-37.29C207.8,171,203.05,183.59,197.75,196.24Z"/><path class="cls-1" d="M223.34,201.4c-6.7,6.06-12.84,11.63-19,17.17-3.42,3.07-6.84,6.14-10.32,9.14-8.15,7-13.86,15.73-17.91,25.6-2.81,6.85-5.48,13.76-8.4,20.56a25.33,25.33,0,0,1-33.61,13.61,23.63,23.63,0,0,1-13-30.25A210.2,210.2,0,0,1,132,232.94c8.57-15.61,21.73-25.65,39.29-29.33a117.09,117.09,0,0,1,18.9-2.53c10.35-.43,20.74-.16,31.11-.18A14,14,0,0,1,223.34,201.4Z"/><path class="cls-2" d="M419.26,143.27,370.18,186.8c-6.91-3.64-14.07-4.21-21.58-.77a46.47,46.47,0,0,0-11,7.39c-17.4,15.23-34.64,30.64-51.94,46Q262.23,260.19,238.73,281c-8.84,7.78-19.15,10.34-30.62,7.86-15.23-3.28-25.43-17.91-23.83-33.38a32.77,32.77,0,0,1,10.82-21.28c9.34-8.68,19-17,28.22-25.8,27-25.78,53.79-51.83,80.9-77.53,12-11.41,24.42-22.48,37-33.25,8.24-7,18-8.18,27.94-3.83a26.13,26.13,0,0,1,11.61,9.43Z"/><path class="cls-2" d="M523.51,256.81a33.2,33.2,0,0,1-3.71,15.85c-5.83,11-15.35,16.15-27.46,16.72-17,.81-32.82-11.71-35.71-28.51a37.54,37.54,0,0,1-.34-10.79l-.35.09,2.3-41.88-19.51,17.2Q407.89,252.71,377.1,280a34.87,34.87,0,0,1-26.53,9.1,33.61,33.61,0,0,1-31.18-39.51,34.49,34.49,0,0,1,11.17-20.7q20.29-18,40.6-36c1.1-1,2.14-2,3.52-3.29l-.16-.12,48.13-42.69.11.12,53.89-47.7c8.31-7.36,17.82-9.86,28.45-6.2,11.22,3.87,18.32,14.55,18.36,27.26q.07,36.67,0,73.37C523.5,214.71,523.47,235.76,523.51,256.81Z"/><path class="cls-1" d="M705,20.23h-1.5a17.24,17.24,0,1,1-5-12.18,17.17,17.17,0,0,1,5,12.18h3a20.24,20.24,0,1,0-20.23,20.24A20.23,20.23,0,0,0,706.5,20.23Z"/><path d="M678.33,30.46V7.84h10a13.54,13.54,0,0,1,4.6.6,5,5,0,0,1,2.51,2.16,6.4,6.4,0,0,1,.95,3.41,5.7,5.7,0,0,1-1.56,4.06,7.92,7.92,0,0,1-4.82,2.1,7.82,7.82,0,0,1,1.81,1.12,16,16,0,0,1,2.48,3l3.94,6.16H694.5l-3-4.71c-.88-1.35-1.6-2.39-2.16-3.11a6.94,6.94,0,0,0-1.52-1.52,5,5,0,0,0-1.37-.6,9.06,9.06,0,0,0-1.66-.11h-3.48V30.46Zm3-12.64h6.44A9.73,9.73,0,0,0,691,17.4,3.47,3.47,0,0,0,692.73,16a3.68,3.68,0,0,0,.6-2,3.37,3.37,0,0,0-1.17-2.64,5.43,5.43,0,0,0-3.68-1h-7.16Z"/></g></g></svg>