<svg xmlns="http://www.w3.org/2000/svg" viewBox="0 0 1199.61 620.76"><defs><style>.cls-1{fill:#080401;}.cls-2{fill:#fff;}</style></defs><g id="Layer_2" data-name="Layer 2"><g id="Layer_1-2" data-name="Layer 1"><polygon class="cls-1" points="224.39 549.74 191.79 549.74 188.49 568.46 216.24 568.46 214.59 577.58 186.84 577.58 182.38 603 171.51 603 182.57 540.62 226.04 540.62 224.39 549.74"/><path class="cls-1" d="M215.85,591.36q2.52-14.07,33.86-16.11a10.86,10.86,0,0,1,1.16-.09l.1-.39a11.31,11.31,0,0,0,.19-2q0-6.21-8-6.21a16.91,16.91,0,0,0-4.66.59,10,10,0,0,0-3.1,1.35,9.86,9.86,0,0,0-1.75,1.6,3.27,3.27,0,0,0-.77,1.41l-.2.58H221.48a8.21,8.21,0,0,1,.43-1.5,20.3,20.3,0,0,1,1.89-3.25,18.9,18.9,0,0,1,3.84-4.17,21.19,21.19,0,0,1,6.74-3.3,32.78,32.78,0,0,1,10.18-1.46q9.9,0,13.59,3.84a12.43,12.43,0,0,1,3.68,8.87,21.82,21.82,0,0,1-.29,3.5L259,589.23l-.39,1.84a9.23,9.23,0,0,0-.1,1.16,2,2,0,0,0,.34,1.17q.35.48,1.8.48h2.13L261.15,603h-2.23c-3.68,0-6.39-.42-8.1-1.26a5.46,5.46,0,0,1-3-4.36q-6.6,6.58-17.66,6.59-8.15,0-11.3-3.15a9.82,9.82,0,0,1-3.16-7.13A14.1,14.1,0,0,1,215.85,591.36Zm12.51,3.2a8.45,8.45,0,0,0,4.76,1.36,20.16,20.16,0,0,0,10.13-2.86q5-2.87,5.78-7.42l.58-3.3c-2.07.13-3.75.26-5.05.39s-3.12.4-5.48.82a34.06,34.06,0,0,0-5.72,1.45,14.6,14.6,0,0,0-4.12,2.43,6.22,6.22,0,0,0-2.33,3.74,2.86,2.86,0,0,0-.1.77A3,3,0,0,0,228.36,594.56Z"/><path class="cls-1" d="M265.52,590.2l.1-1.65h11.15a6,6,0,0,0-.19.87,6.8,6.8,0,0,0,.34,1.75A6.23,6.23,0,0,0,278,593.3a6.77,6.77,0,0,0,2.76,1.8,13.3,13.3,0,0,0,5,.82h.29q9.5,0,10.18-6v-.38c0-1.3-.89-2.35-2.66-3.16a30.77,30.77,0,0,0-6.8-2c-2.75-.51-5.48-1.13-8.19-1.84a13.94,13.94,0,0,1-6.46-3.44,7.78,7.78,0,0,1-2.37-5.68,12.52,12.52,0,0,1,.09-1.45q.58-5.06,6.41-9.32t15.33-4.27a32.84,32.84,0,0,1,7.18.73,15.82,15.82,0,0,1,5,1.94,16.05,16.05,0,0,1,3.11,2.62,8.32,8.32,0,0,1,1.74,2.82,16.76,16.76,0,0,1,.68,2.42,9.32,9.32,0,0,1,.19,1.7v1.16H298.41v-.58a4.45,4.45,0,0,0-.39-1.36,5.08,5.08,0,0,0-1.12-1.7,6.3,6.3,0,0,0-2.42-1.3,12.73,12.73,0,0,0-4.12-.59,13.74,13.74,0,0,0-6.94,1.55q-2.67,1.56-2.86,3.79v.29q0,1.85,2.76,3.06a31.65,31.65,0,0,0,6.94,2q4.17.78,8.34,1.9a14.44,14.44,0,0,1,6.65,3.59,8,8,0,0,1,2.47,5.87,8.38,8.38,0,0,1-.1,1.26A14.21,14.21,0,0,1,300.88,600q-6,4-16.93,4a26.37,26.37,0,0,1-9.75-1.6,12.12,12.12,0,0,1-5.62-3.88,17.64,17.64,0,0,1-2.33-4.37,10.92,10.92,0,0,1-.73-3.54Z"/><path class="cls-1" d="M313.15,568.46l1.65-9.11h5.82l2.23-12.71h10.77l-2.23,12.71H342l-1.65,9.11H329.74l-4,22.51a6.09,6.09,0,0,0-.1,1.07,2.16,2.16,0,0,0,.39,1.31c.25.35.93.53,2,.53h7.76L334.2,603h-7.76q-7.67,0-9.75-2.08a7.81,7.81,0,0,1-2.08-5.78A25.57,25.57,0,0,1,315,591l4-22.51Z"/><polygon class="cls-1" points="363.6 603 374.66 540.62 386.5 540.62 401.63 592.33 435.1 540.62 446.94 540.62 435.88 603 425.01 603 432.58 560.32 405.22 603 394.26 603 382.03 560.32 374.47 603 363.6 603"/><path class="cls-1" d="M444.61,581.17A26.81,26.81,0,0,1,454,564.83q7.67-6.45,19-6.46T489.09,564a18.7,18.7,0,0,1,4.8,12.42,25.41,25.41,0,0,1-.48,4.75,26.52,26.52,0,0,1-9.32,16.4q-7.66,6.4-19,6.4T449,598.3a19,19,0,0,1-4.75-12.47A29.39,29.39,0,0,1,444.61,581.17Zm12.71,10.29q2.91,4.06,9.21,4.07a14.8,14.8,0,0,0,10.53-4.07,18.38,18.38,0,0,0,5.48-10.29,19.37,19.37,0,0,0,.29-3.29,12.82,12.82,0,0,0-2.47-7.57q-2.48-3.49-8.78-3.49a14.77,14.77,0,0,0-10.62,4q-4.23,4-4.95,8.1a37.78,37.78,0,0,0-.73,5.63A11.43,11.43,0,0,0,457.32,591.46Z"/><path class="cls-1" d="M496.9,568.46l1.65-9.11h5.82l2.23-12.71h10.77l-2.23,12.71h10.57l-1.65,9.11H513.49l-4,22.51a7.22,7.22,0,0,0-.1,1.07,2.16,2.16,0,0,0,.39,1.31c.26.35.94.53,2,.53h7.76L518,603h-7.76q-7.67,0-9.75-2.08a7.82,7.82,0,0,1-2.09-5.78,25.57,25.57,0,0,1,.39-4.17l4-22.51Z"/><path class="cls-1" d="M524.94,603l7.76-43.65h10.67L535.61,603Zm8.44-56.46a8,8,0,0,1,2.81-4.9,7.72,7.72,0,0,1,5.14-2,5.51,5.51,0,0,1,4.42,1.75,5.57,5.57,0,0,1,1.5,3.68,6,6,0,0,1-.2,1.46,7.81,7.81,0,0,1-2.86,4.8,8,8,0,0,1-5.28,2,5.09,5.09,0,0,1-4.17-1.75,5.73,5.73,0,0,1-1.46-3.78A8.19,8.19,0,0,1,533.38,546.54Z"/><path class="cls-1" d="M545.6,581.17A26.86,26.86,0,0,1,555,564.83q7.66-6.45,19-6.46T590.08,564a18.7,18.7,0,0,1,4.8,12.42,25.41,25.41,0,0,1-.48,4.75,26.51,26.51,0,0,1-9.31,16.4q-7.67,6.4-19,6.4T550,598.3a19,19,0,0,1-4.76-12.47A29.39,29.39,0,0,1,545.6,581.17Zm12.71,10.29q2.91,4.06,9.22,4.07a14.78,14.78,0,0,0,10.52-4.07,18.38,18.38,0,0,0,5.48-10.29,19.43,19.43,0,0,0,.3-3.29,12.83,12.83,0,0,0-2.48-7.57q-2.48-3.49-8.78-3.49a14.77,14.77,0,0,0-10.62,4c-2.82,2.69-4.46,5.39-5,8.1a39.22,39.22,0,0,0-.73,5.63A11.43,11.43,0,0,0,558.31,591.46Z"/><path class="cls-1" d="M603,559.35h10.29L612.15,566a17.46,17.46,0,0,1,14.55-7.67h.78q10.1,0,13,4.42a18,18,0,0,1,3,10.23,40.45,40.45,0,0,1-.58,6.5L638.74,603H628.06l4.08-23.48a24.11,24.11,0,0,0,.48-4.46,10.29,10.29,0,0,0-1.45-5.48c-1-1.58-3.14-2.41-6.5-2.47h-.29a13,13,0,0,0-9.71,3.73c-2.45,2.49-4.14,6.32-5,11.5L605.94,603H595.27Z"/><polygon class="cls-1" points="681.03 593.88 711.69 593.88 710.04 603 668.52 603 679.58 540.62 690.44 540.62 681.03 593.88"/><path class="cls-1" d="M714.41,581.17a26.81,26.81,0,0,1,9.41-16.34q7.66-6.45,19-6.46T758.89,564a18.7,18.7,0,0,1,4.8,12.42,25.41,25.41,0,0,1-.48,4.75,26.52,26.52,0,0,1-9.32,16.4q-7.67,6.4-19,6.4t-16.11-5.67A19,19,0,0,1,714,585.83,29.39,29.39,0,0,1,714.41,581.17Zm12.71,10.29q2.91,4.06,9.21,4.07a14.8,14.8,0,0,0,10.53-4.07,18.44,18.44,0,0,0,5.48-10.29,20.46,20.46,0,0,0,.29-3.29,12.82,12.82,0,0,0-2.47-7.57q-2.48-3.49-8.78-3.49a14.81,14.81,0,0,0-10.63,4q-4.21,4-4.94,8.1a37.78,37.78,0,0,0-.73,5.63A11.43,11.43,0,0,0,727.12,591.46Z"/><path class="cls-1" d="M764.17,620.76l1.65-9H796a3.37,3.37,0,0,0,2.37-.68,4.05,4.05,0,0,0,1-2.32l1.94-11.45a19.61,19.61,0,0,1-13.77,6.59c-.72.07-1.43.1-2.14.1q-9.9,0-14.31-5.24a18.38,18.38,0,0,1-4.41-12.22,29.54,29.54,0,0,1,.48-5.14,27.74,27.74,0,0,1,9.07-16.59,25.7,25.7,0,0,1,17.51-6.31H795q8.43.3,12.32,7l1.06-6.11h10.38l-8.73,49.38q-1.26,7.17-4.65,9.6t-11.06,2.43Zm16-29.21q3,3.88,8.83,3.88a14.35,14.35,0,0,0,10.09-3.83,18.19,18.19,0,0,0,5.43-10.23v-.49a18.67,18.67,0,0,0,.39-3.68A11.36,11.36,0,0,0,802.5,570q-2.43-3.1-8.44-3.11a15.16,15.16,0,0,0-10.39,3.88,17.65,17.65,0,0,0-5.52,10.58,17.35,17.35,0,0,0-.3,3.1A11,11,0,0,0,780.18,591.55Z"/><path class="cls-1" d="M819.38,603l7.76-43.65h10.67L830.05,603Zm8.44-56.46a8,8,0,0,1,2.81-4.9,7.72,7.72,0,0,1,5.14-2,5.48,5.48,0,0,1,4.41,1.75,5.53,5.53,0,0,1,1.51,3.68,6,6,0,0,1-.2,1.46,7.81,7.81,0,0,1-2.86,4.8,8,8,0,0,1-5.28,2,5.09,5.09,0,0,1-4.17-1.75,5.73,5.73,0,0,1-1.46-3.78A8.19,8.19,0,0,1,827.82,546.54Z"/><path class="cls-1" d="M838.88,590.2l.09-1.65h11.16a4.92,4.92,0,0,0-.19.87,7.14,7.14,0,0,0,.33,1.75,6.23,6.23,0,0,0,1.12,2.13,6.89,6.89,0,0,0,2.77,1.8,13.28,13.28,0,0,0,5,.82h.29q9.51,0,10.19-6v-.38c0-1.3-.89-2.35-2.67-3.16a30.67,30.67,0,0,0-6.79-2c-2.75-.51-5.48-1.13-8.2-1.84a14,14,0,0,1-6.45-3.44,7.78,7.78,0,0,1-2.38-5.68,12.63,12.63,0,0,1,.1-1.45q.59-5.06,6.4-9.32T865,558.37a32.77,32.77,0,0,1,7.18.73A15.8,15.8,0,0,1,877.2,561a16,16,0,0,1,3.1,2.62,8.52,8.52,0,0,1,1.75,2.82,18.15,18.15,0,0,1,.68,2.42,9.32,9.32,0,0,1,.19,1.7v1.16H871.76v-.58a4.65,4.65,0,0,0-.38-1.36,5.08,5.08,0,0,0-1.12-1.7,6.44,6.44,0,0,0-2.43-1.3,12.69,12.69,0,0,0-4.12-.59,13.74,13.74,0,0,0-6.94,1.55c-1.77,1-2.73,2.3-2.86,3.79v.29c0,1.23.92,2.25,2.77,3.06a31.54,31.54,0,0,0,6.93,2c2.78.52,5.57,1.15,8.35,1.9a14.4,14.4,0,0,1,6.64,3.59,8,8,0,0,1,2.48,5.87,9.94,9.94,0,0,1-.1,1.26A14.24,14.24,0,0,1,874.24,600q-6,4-16.93,4a26.33,26.33,0,0,1-9.75-1.6,12.16,12.16,0,0,1-5.63-3.88,18,18,0,0,1-2.33-4.37,11.15,11.15,0,0,1-.72-3.54Z"/><path class="cls-1" d="M886.51,568.46l1.65-9.11H894l2.23-12.71H907l-2.23,12.71h10.57l-1.65,9.11H903.1l-4,22.51A7.22,7.22,0,0,0,899,592a2.16,2.16,0,0,0,.39,1.31c.26.35.94.53,2,.53h7.76L907.56,603H899.8q-7.66,0-9.75-2.08a7.82,7.82,0,0,1-2.09-5.78,25.57,25.57,0,0,1,.39-4.17l4-22.51Z"/><path class="cls-1" d="M914.54,603l7.77-43.65H933L925.22,603ZM923,546.54a8,8,0,0,1,2.81-4.9,7.7,7.7,0,0,1,5.14-2,5.48,5.48,0,0,1,4.41,1.75,5.53,5.53,0,0,1,1.51,3.68,6,6,0,0,1-.2,1.46,7.81,7.81,0,0,1-2.86,4.8,8,8,0,0,1-5.29,2,5.11,5.11,0,0,1-4.17-1.75,5.77,5.77,0,0,1-1.45-3.78A8.19,8.19,0,0,1,923,546.54Z"/><path class="cls-1" d="M935.31,580.88a26.45,26.45,0,0,1,9.12-16.3q7.37-6.2,18.33-6.21a27.45,27.45,0,0,1,9.8,1.56,13,13,0,0,1,5.77,3.73A19.09,19.09,0,0,1,981,568a9.83,9.83,0,0,1,.93,3.73v1.55H970.62a3.14,3.14,0,0,0-.1-.72,8.14,8.14,0,0,0-.63-1.55,7,7,0,0,0-1.4-2,7.59,7.59,0,0,0-2.77-1.56,13.11,13.11,0,0,0-4.41-.67,13.65,13.65,0,0,0-9.95,3.83,18.45,18.45,0,0,0-5.09,10.23,24.94,24.94,0,0,0-.29,3.59,14.06,14.06,0,0,0,2.18,7.57q2.19,3.5,8.1,3.49a12,12,0,0,0,7-2.08,11.61,11.61,0,0,0,4-4.13l1-2h11.16c-.13.45-.34,1.05-.63,1.79a28.25,28.25,0,0,1-2.28,4,25.21,25.21,0,0,1-4.32,5.09,23,23,0,0,1-7.08,4A28.09,28.09,0,0,1,954.81,604q-11.16,0-15.57-5.33a18.63,18.63,0,0,1-4.42-12.23A33.05,33.05,0,0,1,935.31,580.88Z"/><path class="cls-1" d="M981.78,590.2l.09-1.65H993a6,6,0,0,0-.19.87,6.8,6.8,0,0,0,.34,1.75,6,6,0,0,0,1.11,2.13,6.89,6.89,0,0,0,2.77,1.8,13.28,13.28,0,0,0,5,.82h.29q9.51,0,10.19-6v-.38c0-1.3-.89-2.35-2.67-3.16a30.67,30.67,0,0,0-6.79-2c-2.75-.51-5.48-1.13-8.2-1.84a14,14,0,0,1-6.45-3.44,7.78,7.78,0,0,1-2.37-5.68,12.52,12.52,0,0,1,.09-1.45q.58-5.06,6.41-9.32t15.32-4.27a32.71,32.71,0,0,1,7.18.73,14.21,14.21,0,0,1,8.15,4.56,8.36,8.36,0,0,1,1.75,2.82,18.15,18.15,0,0,1,.68,2.42,9.32,9.32,0,0,1,.19,1.7v1.16h-11.15v-.58a4.77,4.77,0,0,0-.39-1.36,5.08,5.08,0,0,0-1.12-1.7,6.3,6.3,0,0,0-2.42-1.3,12.79,12.79,0,0,0-4.13-.59,13.7,13.7,0,0,0-6.93,1.55q-2.67,1.56-2.87,3.79v.29c0,1.23.93,2.25,2.77,3.06a31.48,31.48,0,0,0,6.94,2q4.17.78,8.34,1.9a14.44,14.44,0,0,1,6.65,3.59,8,8,0,0,1,2.47,5.87,9.94,9.94,0,0,1-.1,1.26,14.24,14.24,0,0,1-6.74,10.47q-6,4-16.93,4a26.33,26.33,0,0,1-9.75-1.6,12.22,12.22,0,0,1-5.63-3.88,18.33,18.33,0,0,1-2.33-4.37,11.15,11.15,0,0,1-.72-3.54Z"/><path class="cls-1" d="M442.54,454.12l67.94-62.31c1.22,2.32,2.25,4,3.06,5.85,4.94,11.06,9.62,22.25,14.78,33.2,9,19.19-.51,44.87-18.69,54.7-20,10.8-45,5.45-57.66-13.1C448.19,466.9,445.74,460.43,442.54,454.12Z"/><path class="cls-1" d="M899.37,318.37c.39-28.62,6.55-58.88,21.19-87.23,29-56.28,87.08-83.69,143.61-77.32,44.06,5,78.2,25.86,103.17,62.11,18.33,26.61,27,56.68,29.86,88.43,3.17,35.48-1.75,70-17.34,102.25-21.6,44.69-56.27,73.93-105.79,82.5-44.3,7.66-84.5-3.09-119-32.44-24.54-20.86-39.95-47.55-48.12-78.55A224.45,224.45,0,0,1,899.37,318.37Zm217.74,1.37c-.17-3-.3-8.81-.89-14.57-1.56-15.39-5.11-30.27-12.36-44.08-22.23-42.35-78-45.6-104.64-8.71a95.72,95.72,0,0,0-16.07,37.15,165.08,165.08,0,0,0-1,59.38c3.25,20.61,11.12,39.16,27.17,53.44,13.49,12,29.47,16.11,47,14.13,22.69-2.56,38.18-15.61,48.46-35.38C1114.26,362.74,1116.76,342.84,1117.11,319.74Z"/><path class="cls-1" d="M141.2,154.36c32.25,0,64.49-.12,96.73,0,19.87.1,35.26,12.61,39.78,31.78,5.76,24.51-10.29,47.27-35.29,49.91a118.59,118.59,0,0,1-12.07.5q-58.18.07-116.37.08l-3,0c-11.63.13-14,2.65-14.22,14.32-.19,10.06.27,20.24-1.19,30.13-3.75,25.5-25.08,41.33-52.22,39.7-23.4-1.4-42.51-21.17-43-45.59-.5-25.18-.39-50.39,0-75.57.26-14.8,6.06-27.41,18.08-36.65,8.11-6.23,17.39-8.73,27.54-8.71q47.61.1,95.21,0Z"/><path class="cls-1" d="M239.13,318.79c.17,22.23-16.64,39.81-39,40.86-11.31.53-22.63.84-33.9,1.78-21.35,1.78-38.3,11.35-50.16,29.45-6.66,10.17-9.62,21.51-10.52,33.47-.54,7.27-.44,14.62-1.41,21.83-3.41,25.44-23.1,43.62-49.18,44.75C27.4,492.12,8.24,476,2.22,453.41c-6.07-22.78.4-42.57,18.19-57.82C52.12,368.4,84.24,341.68,116.35,315c9.46-7.87,19.14-15.58,29.29-22.52,15.56-10.65,33.12-15.46,52-15.41C225.92,277.11,239.05,299.83,239.13,318.79Z"/><path class="cls-1" d="M336.07,332.46c-34.22,0-66.71,3.74-94.82,26.2.81-2.33,1.44-4.73,2.44-7q13.57-30.31,27.26-60.57Q292.77,243,314.7,194.9c1.45-3.2,2.72-6.49,4.06-9.75,10.27-24.82,35.13-37.2,59.55-29.27,14.27,4.63,23.57,14.85,29.66,28.31q14.94,33,30,65.94c3.66,8,7.37,16,11.37,24.64l-59.33,56.06c-9.66-20.69-17.43-41.53-26.91-63.38C353.14,289.53,345.08,311,336.07,332.46Z"/><path class="cls-1" d="M379.56,341.22c-11.4,10.3-21.82,19.77-32.29,29.18-5.8,5.22-11.61,10.43-17.53,15.53-13.85,11.92-23.56,26.73-30.44,43.51-4.77,11.64-9.31,23.38-14.27,34.94C275.33,487,250.44,497,227.91,487.5c-19.95-8.42-30.1-31.17-22.15-51.41,5.51-14,11.33-28.08,18.57-41.27,14.56-26.53,36.92-43.59,66.77-49.84a197.88,197.88,0,0,1,32.11-4.3c17.6-.73,35.25-.28,52.87-.3A22.75,22.75,0,0,1,379.56,341.22Z"/><path class="cls-2" d="M712.51,242.43l-83.4,74c-11.75-6.2-23.91-7.16-36.68-1.31a79,79,0,0,0-18.68,12.56c-29.58,25.87-58.86,52.08-88.26,78.15q-39.87,35.32-79.79,70.62c-15,13.21-32.53,17.57-52,13.35-25.87-5.58-43.22-30.43-40.5-56.73,1.51-14.62,7.93-26.41,18.4-36.15C347.43,382.15,363.85,368,379.52,353,425.45,309.24,470.94,265,517,221.29c20.45-19.39,41.5-38.21,63-56.51,14-11.95,30.66-13.9,47.5-6.5,8.72,3.84,15.24,9.27,19.71,16Z"/><path class="cls-2" d="M889.68,435.39a56.32,56.32,0,0,1-6.31,26.93c-9.9,18.68-26.09,27.45-46.67,28.42-29,1.38-55.77-19.91-60.67-48.46a63.15,63.15,0,0,1-.59-18.32l-.59.15,3.9-71.19q-16.59,14.61-33.16,29.25-52.4,46.24-104.72,92.61c-13,11.55-27.92,16.57-45.1,15.46a57.12,57.12,0,0,1-53-67.14c2.37-13.87,8.38-25.77,19-35.17q34.5-30.58,69-61.14c1.87-1.65,3.64-3.4,6-5.6l-.26-.18,81.8-72.56.19.19L810,167.58c14.13-12.5,30.28-16.75,48.35-10.52,19.07,6.57,31.14,24.72,31.2,46.31q.13,62.36.06,124.7Q889.65,381.74,889.68,435.39Z"/><path class="cls-1" d="M1198.11,33.34h-1.5a30.34,30.34,0,1,1-8.88-21.45,30.25,30.25,0,0,1,8.88,21.45h3a33.34,33.34,0,1,0-33.33,33.33,33.33,33.33,0,0,0,33.33-33.33Z"/><path class="cls-1" d="M1152.79,50.72V12.27h17a22.73,22.73,0,0,1,7.82,1,8.58,8.58,0,0,1,4.28,3.66,11,11,0,0,1,1.6,5.8,9.7,9.7,0,0,1-2.65,6.9q-2.66,2.81-8.19,3.56a13.22,13.22,0,0,1,3.07,1.92,26.36,26.36,0,0,1,4.22,5.11l6.69,10.47h-6.4l-5.09-8c-1.48-2.31-2.71-4.08-3.67-5.3a11.61,11.61,0,0,0-2.58-2.57,7.62,7.62,0,0,0-2.32-1,14.51,14.51,0,0,0-2.83-.19h-5.91V50.72Zm5.08-21.48h10.94a16.14,16.14,0,0,0,5.46-.73,5.77,5.77,0,0,0,3-2.3,6.27,6.27,0,0,0,1-3.45,5.74,5.74,0,0,0-2-4.49q-2-1.75-6.26-1.75h-12.17Z"/></g></g></svg>